<svg width="261" height="55" viewBox="0 0 261 55" fill="none" xmlns="http://www.w3.org/2000/svg">
<path d="M158.752 55C152.189 55 146.427 52.7216 146.427 48.2707C146.427 47.105 146.8 45.9393 147.601 44.7736C146.053 43.7139 145.2 42.0183 145.2 40.1638C145.2 37.3025 147.174 34.0703 151.335 32.1098C149.521 30.1493 148.508 27.659 148.508 24.9566C148.508 18.7572 153.843 13.7765 161.366 13.7765C162.807 13.7765 164.141 13.9355 165.421 14.3064C166.381 10.4383 170.276 7.41811 175.719 7.25915C175.985 7.89499 176.145 8.53083 176.145 9.11368C176.145 10.8092 175.132 12.0279 173.051 12.0279C171.717 12.0279 170.81 11.816 169.476 12.0279C167.982 12.3988 166.862 13.1936 166.221 14.5713C171.023 16.2139 174.171 20.2408 174.171 24.9566C174.171 31.1031 168.782 36.1368 161.366 36.1368C157.578 36.1368 154.323 34.8651 152.029 32.7987C149.681 34.0173 148.561 35.8719 148.561 37.5674C148.561 39.5809 150.215 41.3295 153.416 41.3295C157.898 41.3295 163.447 37.6734 169.209 37.6734C174.491 37.6734 177.212 40.3757 177.212 44.0318C177.212 51.026 167.342 55 158.752 55ZM147.654 47.7938C147.654 51.185 151.602 53.1455 156.724 53.1455C162.753 53.1455 169.316 50.3372 169.316 45.8863C169.316 43.9788 168.089 42.6012 165.421 42.6012C161.419 42.6012 156.564 45.9923 151.922 45.9923C150.535 45.9923 149.361 45.7274 148.401 45.2505C147.921 46.0983 147.654 46.9461 147.654 47.7938ZM155.017 24.9037C155.017 30.7322 157.151 35.0241 161.366 35.0241C165.474 35.0241 167.662 30.7322 167.662 24.9566C167.662 19.1281 165.474 14.8362 161.366 14.8362C157.151 14.8362 155.017 19.1281 155.017 24.9037Z" fill="#00579C"/>
<path d="M177.646 41.8593C177.966 39.6339 178.072 37.6734 178.072 34.8651V21.6185C178.072 18.8102 177.966 16.8497 177.646 14.6243H185.169C184.848 16.8497 184.742 18.8102 184.742 21.6185V23.0491C186.929 16.3728 190.824 13.8825 196.32 13.8825C196.64 14.5713 196.853 15.2601 196.853 15.896C196.853 17.6445 195.573 19.2341 193.385 19.2341C190.077 19.2341 186.396 19.764 184.742 24.8507V34.8651C184.742 37.6734 184.848 39.6339 185.169 41.8593H177.646Z" fill="#00579C"/>
<path d="M196.85 41.8593C197.171 39.6339 197.277 37.6734 197.277 34.8651V21.6185C197.277 18.8102 197.171 16.8497 196.85 14.6243H204.427C204.107 16.8497 204 18.8102 204 21.6185V34.8651C204 37.6734 204.107 39.6339 204.427 41.8593H196.85ZM196.317 6.78227L200.639 2.59634L204.96 6.78227L200.639 10.9682L196.317 6.78227Z" fill="#00579C"/>
<path d="M217.843 42.8131C211.281 42.8131 206.479 36.7726 206.479 28.2948C206.479 20.4528 210.801 13.6705 217.683 13.6705C221.525 13.6705 225.206 15.896 227.554 20.1349V6.99422C227.554 4.18593 227.447 2.22543 227.127 0H234.704C234.383 2.22543 234.277 4.18593 234.277 6.99422V33.1166C234.277 37.8324 234.65 39.157 235.504 41.8593H227.928C227.714 39.422 227.607 37.8324 227.554 35.6069C226.007 39.6339 222.592 42.8131 217.843 42.8131ZM213.468 28.4538C213.468 35.395 216.723 39.8459 220.671 39.8459C223.873 39.8459 226.914 36.9316 227.554 32.2688V21.5655C225.9 18.5983 223.286 16.8497 220.671 16.8497C216.243 16.8497 213.468 21.9894 213.468 28.4538Z" fill="#00579C"/>
<path d="M249.529 42.7601C243.873 42.7601 237.951 40.1638 236.35 34.1763C237.044 32.9046 238.004 32.3218 239.125 32.3218C240.512 32.3218 241.792 33.2225 242.486 34.7592C243.98 39.6869 246.968 41.6474 250.222 41.6474C253.157 41.6474 255.504 40.1108 255.504 37.5145C255.504 30.5732 238.057 30.4143 238.057 21.0356C238.057 16.4788 242.166 13.7765 248.141 13.7765C252.57 13.7765 257.212 15.4191 260.413 18.3863C260.36 20.1879 259.399 21.5655 257.639 21.5655C256.038 21.5655 255.024 20.4528 254.224 19.2341C252.73 16.7967 250.756 14.8362 247.715 14.8362C244.994 14.8362 242.966 16.2669 242.966 18.5453C242.966 25.2216 261 25.4335 261 34.7592C261 39.9518 255.398 42.7601 249.529 42.7601Z" fill="#00579C"/>
<path d="M3.89379 14.1626L0 10.7307L3.89379 7.2988L7.78759 10.7307L3.89379 14.1626ZM7.78759 41.8593H0V17.1111H7.78759V41.8593Z" fill="#181818"/>
<path d="M27.1615 16.3377C31.9801 16.3377 35.2411 19.4796 35.2411 25.1349V41.8593H27.4535V27.6001C27.4535 23.8782 26.1394 22.6214 23.5597 22.6214C20.5907 22.6214 18.8872 24.1199 18.8872 27.5518V41.8593H11.0996V17.1111H18.8872V20.688H18.9845C20.2987 18.4162 22.7323 16.3377 27.1615 16.3377Z" fill="#181818"/>
<path d="M40.265 17.1111V15.371C40.265 9.32893 42.6013 6.86377 47.9553 6.86377C49.4154 6.86377 50.7296 7.00878 52.3845 7.34714V12.8092C51.4597 12.7125 51.0703 12.6641 50.4376 12.6641C49.0747 12.6641 48.0526 12.9058 48.0526 15.5643V17.1111H52.3845V22.9115H48.0526V41.8593H40.265V22.9115H36.9066V17.1111H40.265ZM62.7517 41.8593H54.9641V17.1111H62.7517V41.8593Z" fill="#181818"/>
<path d="M82.11 16.3377C86.9286 16.3377 90.1896 19.4796 90.1896 25.1349V41.8593H82.402V27.6001C82.402 23.8782 81.0879 22.6214 78.5082 22.6214C75.5392 22.6214 73.8357 24.1199 73.8357 27.5518V41.8593H66.0481V17.1111H73.8357V20.688H73.933C75.2472 18.4162 77.6808 16.3377 82.11 16.3377Z" fill="#181818"/>
<path d="M97.2498 14.1626L93.356 10.7307L97.2498 7.2988L101.144 10.7307L97.2498 14.1626ZM101.144 41.8593H93.356V17.1111H101.144V41.8593Z" fill="#181818"/>
<path d="M116.77 36.5423C117.5 36.5423 117.938 36.494 118.863 36.349V41.811C117.208 42.1977 115.796 42.3427 114.239 42.3427C108.787 42.3427 106.451 39.8776 106.451 33.8355V22.9115H102.995V17.1111H106.451V10.199H114.239V17.1111H118.571V22.9115H114.239V33.6422C114.239 36.3007 115.261 36.5423 116.77 36.5423Z" fill="#181818"/>
<path d="M126.613 50.4149C124.909 50.4149 123.595 50.2699 121.94 49.9315V44.0345C122.768 44.1312 123.401 44.1795 124.277 44.1795C125.786 44.1795 127.976 44.1312 128.657 41.521L118.728 17.1111H126.759L132.6 33.4005H132.697L138.051 17.1111H145.741L136.639 41.9077C134.547 47.563 132.113 50.4149 126.613 50.4149Z" fill="#181818"/>
<path d="M54.9609 10.7288L58.8547 14.1606L62.7485 10.7288L58.8547 7.29688L54.9609 10.7288Z" fill="#181818"/>
</svg>
